<svg viewBox="0 0 128 128" fill="none" xmlns="http://www.w3.org/2000/svg" role="img" aria-label="bonez">
  <g transform="translate(21.21 21.91) scale(2.36)">
    <path d="M6 1C6 1 17.4424 2.4414 17.4424 8.98062C17.4424 15.5198 6 17.016 6 17.016V12.8414C9.26147 12.0386 13.0657 11.1829 13.0657 8.98245C13.0657 6.92069 9.24992 5.95003 6 5.17459V1Z" fill="#1B1B1B"/>
    <path d="M6 18.6562C6 18.6562 17.4424 20.0977 17.4424 26.6369C17.4424 33.1761 6 34.6722 6 34.6722V30.4976C9.26147 29.6948 13.0657 28.8391 13.0657 26.6387C13.0657 24.5769 9.24992 23.6063 6 22.8327V18.6581V18.6562Z" fill="#1B1B1B"/>
    <path d="M30.2627 1C30.2627 1 18.8203 2.4414 18.8203 8.98062C18.8203 15.6786 30.2627 17.0142 30.2627 17.0142V12.8396C27.0012 12.0368 23.197 11.181 23.197 8.98062C23.197 6.91887 27.0128 5.95003 30.2627 5.17459V1Z" fill="#1B1B1B"/>
    <path d="M30.2627 18.6562C30.2627 18.6562 18.8203 20.0977 18.8203 26.6369C18.8203 33.3348 30.2627 34.6704 30.2627 34.6704V30.4958C27.0012 29.693 23.197 28.8373 23.197 26.6369C23.197 24.5751 27.0128 23.6063 30.2627 22.8308V18.6562Z" fill="#1B1B1B"/>
  </g>
</svg>
